<svg height="512" viewBox="0 0 22.381 22.324" width="512" xmlns="http://www.w3.org/2000/svg"><g id="Layer_2" data-name="Layer 2"><g id="Layer_1-2" data-name="Layer 1"><g id="address_book" data-name="address book"><path d="m22.381 16.831-2.241 1.048v-5.844l2.241 1.047z" fill="#5b77e0"/><path d="m22.381 11.599-2.241 1.046v-5.842l2.241 1.046z" fill="#a0e4f9"/><path d="m20.14 1.568v-1.568h-14.675v22.324h14.675v-14.912l2.241-1.047v-3.749z" fill="#faba62"/><path d="m1.728 0h3.737v22.324h-3.737z" fill="#6176cd"/><g fill="#618ef4"><path d="m1.728 5.5a1.749 1.749 0 0 0 1.747-1.744h-.7a1.05 1.05 0 1 1 -1.05-1.051v-.7a1.747 1.747 0 0 0 .003 3.495z"/><path d="m1.728 9.743a1.05 1.05 0 0 1 0-2.1v-.7a1.748 1.748 0 0 0 0 3.495 1.749 1.749 0 0 0 1.747-1.745h-.7a1.051 1.051 0 0 1 -1.047 1.05z"/><path d="m1.728 14.681a1.05 1.05 0 0 1 0-2.1v-.7a1.748 1.748 0 0 0 0 3.5 1.749 1.749 0 0 0 1.747-1.747h-.7a1.051 1.051 0 0 1 -1.047 1.047z"/><path d="m1.728 19.619a1.05 1.05 0 0 1 0-2.1v-.7a1.748 1.748 0 0 0 0 3.495 1.75 1.75 0 0 0 1.747-1.748h-.7a1.052 1.052 0 0 1 -1.047 1.053z"/></g><path d="m8.791 14.589h8.023v.697h-8.023z" fill="#4663b5"/><path d="m8.791 16.885h5.881v.697h-5.881z" fill="#4663b5"/><path d="m16.14 5.734a4.011 4.011 0 1 0 -5.276 5.737c-.8-1.091-.1-2.809 1.014-3.449-.917-.88-.419-2.759.924-2.733 1.357-.008 1.841 1.831.925 2.733 1.11.651 1.816 2.356 1.013 3.449a4.05 4.05 0 0 0 1.4-5.737z" fill="#d9e1fe"/><path d="m13.727 8.022a1.2 1.2 0 0 1 -1.849 0c-1.115.64-1.818 2.358-1.014 3.449a4.041 4.041 0 0 0 3.876 0c.805-1.092.102-2.808-1.013-3.449z" fill="#618ef4"/><path d="m13.727 8.022c.916-.9.433-2.741-.925-2.733a1.461 1.461 0 0 0 -1.402 1.511c-.044 1.214 1.391 2.293 2.327 1.222z" fill="#fff"/></g></g></g></svg>