<svg height="512" viewBox="0 0 56 58" width="512" xmlns="http://www.w3.org/2000/svg"><g id="Page-1" fill="none" fill-rule="evenodd"><g id="026---Open-Box" fill-rule="nonzero" transform="translate(-1)"><path id="Shape" d="m52 30.11v16.74c.002778.7977729-.4688225 1.5208937-1.2 1.84l-21 9.14c-.2525663.1097474-.5246307.167561-.8.17v-29.5z" fill="#a56a43"/><path id="Shape" d="m29 28.5v29.5c-.2753693-.002439-.5474337-.0602526-.8-.17l-21-9.14c-.73117749-.3191063-1.20277803-1.0422271-1.2-1.84v-16.74z" fill="#e57e25"/><path id="Shape" d="m17 43.925v2.818c.0001636.3374036-.1698272.6521401-.4520745.8370122-.2822474.184872-.6386899.2149493-.9479255.0799878l-5-2.178c-.3645881-.1591192-.60019286-.5192018-.6-.917v-2.819c.0001737-.3372263.1703015-.6516522.4524929-.836286.2821913-.1846338.6384341-.2146046.9475071-.079714l5 2.178c.3645881.1591192.6001929.5192018.6.917z" fill="#fff"/><g fill="#fac176"><path id="Shape" d="m52 30.11 3.81-1.66c.5410143-.2376764.9492304-.7024336 1.1151324-1.2695871s.0725058-1.1786408-.2551324-1.6704129l-4.67-7.01 4.67-7.01c.3276382-.4917721.4210344-1.1032594.2551324-1.67041288-.165902-.56715349-.5741181-1.03191071-1.1151324-1.26958712l-19.28-8.38c-.8862465-.38604393-1.9217569-.0829677-2.46.72l-5.07 7.61-5.07-7.61c-.5382431-.8029677-1.5737535-1.10604393-2.46-.72l-19.28 8.38c-.54101432.23767641-.94923036.70243363-1.1151324 1.26958712-.16590205.56715348-.07250584 1.17864078.2551324 1.67041288l4.67 7.01-4.67 7.01c-.32763824.4917721-.42103445 1.1032594-.2551324 1.6704129.16590204.5671535.57411808 1.0319107 1.1151324 1.2695871l3.81 1.66 22.991-2.25z"/><path id="Shape" d="m29 28.5-5.07 7.61c-.5382431.8029677-1.5737535 1.1060439-2.46.72l-15.47-6.72-3.81-1.66c-.54101432-.2376764-.94923036-.7024336-1.1151324-1.2695871-.16590205-.5671535-.07250584-1.1786408.2551324-1.6704129l4.67-7.01z"/><path id="Shape" d="m55.81 28.45-3.81 1.66-15.47 6.72c-.8862465.3860439-1.9217569.0829677-2.46-.72l-5.07-7.61 23-10 4.67 7.01c.3276382.4917721.4210344 1.1032594.2551324 1.6704129s-.5741181 1.0319107-1.1151324 1.2695871z"/></g><path id="Shape" d="m29 8.5v20l-23-10z" fill="#f29c1f"/><path id="Shape" d="m52 18.5-23 10v-20z" fill="#e57e25"/></g></g></svg>