<svg height="512" viewBox="0 0 58 55" width="512" xmlns="http://www.w3.org/2000/svg"><g id="Page-1" fill="none" fill-rule="evenodd"><g id="012---Stacked-Boxes" fill-rule="nonzero"><path id="Shape" d="m1.25 31.15 9.34-6.56c.3711834-.3787953.8796599-.5915621 1.41-.59h19c.5305905-.0028231 1.0395388.2101411 1.41.59l-6.41 10.41z" fill="#d25627"/><path id="Shape" d="m26.25 31.15 9.34-6.56c.3711834-.3787953.8796599-.5915621 1.41-.59h19c.5305905-.0028231 1.0395388.2101411 1.41.59l-8 7z" fill="#cb8252"/><path id="Shape" d="m49.41 31.59 8-7c.3798589.3704612.5928231.8794095.59 1.41v19c.0015621.5303401-.2112047 1.0388166-.59 1.41l-8 8z" fill="#a56a43"/><path id="Shape" d="m50 33v20c-.0081672 1.1011688-.8988312 1.9918328-2 2h-21c-1.1032019-.0032948-1.9967052-.8967981-2-2v-20c-.0008293-.8142552.4942382-1.546955 1.25-1.85.2372474-.1003226.4924168-.1513564.75-.15h21c1.1011688.0081672 1.9918328.8988312 2 2z" fill="#cf976a"/><rect id="Rectangle-path" fill="#fff" height="4" rx="1" width="6" x="29" y="47"/><path id="Shape" d="m46 48h-3c-.5522847 0-1-.4477153-1-1s.4477153-1 1-1h3c.5522847 0 1 .4477153 1 1s-.4477153 1-1 1z" fill="#d25627"/><path id="Shape" d="m46 52h-3c-.5522847 0-1-.4477153-1-1s.4477153-1 1-1h3c.5522847 0 1 .4477153 1 1s-.4477153 1-1 1z" fill="#d25627"/><path id="Shape" d="m25 33v20c-.0081672 1.1011688-.8988312 1.9918328-2 2h-21c-1.10320187-.0032948-1.9967052-.8967981-2-2v-20c-.00082927-.8142552.49423816-1.546955 1.25-1.85.23724744-.1003226.49241675-.1513564.75-.15h21c1.1011688.0081672 1.9918328.8988312 2 2z" fill="#e57e25"/><rect id="Rectangle-path" fill="#fff" height="4" rx="1" width="6" x="4" y="47"/><path id="Shape" d="m21 48h-3c-.5522847 0-1-.4477153-1-1s.4477153-1 1-1h3c.5522847 0 1 .4477153 1 1s-.4477153 1-1 1z" fill="#d25627"/><path id="Shape" d="m21 52h-3c-.5522847 0-1-.4477153-1-1s.4477153-1 1-1h3c.5522847 0 1 .4477153 1 1s-.4477153 1-1 1z" fill="#d25627"/><path id="Shape" d="m14.25 7.15 9.34-6.56c.3711834-.37879533.8796599-.59156211 1.41-.59h19c.5305905-.00282307 1.0395388.2101411 1.41.59l-8 7z" fill="#e57e25"/><path id="Shape" d="m37.41 7.59 8-7c.3798589.3704612.5928231.87940947.59 1.41v19c.0015621.5303401-.2112047 1.0388166-.59 1.41l-8 8z" fill="#a56a43"/><path id="Shape" d="m37.41 30.41-.06.07" fill="#e57e25"/><path id="Shape" d="m36.63 0-9 7h-3.26l9-7z" fill="#a56a43"/><path id="Shape" d="m38 9v20c-.0081672 1.1011688-.8988312 1.9918328-2 2h-21c-1.1032019-.0032948-1.9967052-.8967981-2-2v-20c-.0008293-.81425521.4942382-1.54695501 1.25-1.85.2372474-.10032257.4924168-.15135643.75-.15h21c1.1011688.00816722 1.9918328.89883122 2 2z" fill="#f29c1f"/><rect id="Rectangle-path" fill="#fff" height="4" rx="1" width="6" x="17" y="23"/><g fill="#d25627"><path id="Shape" d="m34 24h-3c-.5522847 0-1-.4477153-1-1s.4477153-1 1-1h3c.5522847 0 1 .4477153 1 1s-.4477153 1-1 1z"/><path id="Shape" d="m34 28h-3c-.5522847 0-1-.4477153-1-1s.4477153-1 1-1h3c.5522847 0 1 .4477153 1 1s-.4477153 1-1 1z"/></g></g></g></svg>