<svg height="512" viewBox="0 0 88 88" width="512" xmlns="http://www.w3.org/2000/svg"><g id="Box"><path d="m81 23v42l-37 20-37-20v-42l2.1-1.13 34.9 18.86 34.9-18.86z" fill="#ffb655"/><path d="m44 43v42l-37-20v-42l13.67 7.39 9.66 5.22z" fill="#fccc97"/><path d="m30.33 35.61v16.64l-4.83-6.85-4.83 1.63v-16.64z" fill="#ffb655"/><path d="m81 23-37 20-13.67-7.39-9.66-5.22-13.67-7.39 37-20 13.67 7.39 9.66 5.22z" fill="#fc9f30"/><path d="m67.33 15.61-37 20-9.66-5.22 37-20z" fill="#db811f"/><g fill="#19191e"><path d="m81.4756 22.12-37-20a1.0019 1.0019 0 0 0 -.9512 0l-37 20a1.0273 1.0273 0 0 0 -.5244.88v42a1 1 0 0 0 .5244.88l37 20a1.001 1.001 0 0 0 .4756.12 1.1423 1.1423 0 0 0 .4756-.12l37-20a1 1 0 0 0 .5244-.88v-42a1.0309 1.0309 0 0 0 -.5244-.88zm-59.8056 9.9469c1.7376.9389.2709.1461 7.66 4.14v12.89l-3.0127-4.2715a1.0008 1.0008 0 0 0 -1.1367-.3716l-3.5106 1.1839zm57.2268-9.0669-34.8968 18.8632-11.5663-6.2522 34.8972-18.863zm-13.6693-7.3887-34.8961 18.8624c-5.043-2.7249-3.3361-1.8024-7.5589-4.085l34.8969-18.8628zm-21.2275-11.4746 11.5665 6.2522-34.8972 18.8629-11.5661-6.2518zm-36 20.5408 11.67 6.308v16.0445a1 1 0 0 0 1.3194.9477l4.1235-1.39 4.4 6.2383a1 1 0 0 0 1.8171-.576v-14.9617l11.67 6.3081v39.7264l-35-18.919zm37 58.6453v-39.7264l35-18.9189v39.7263z"/><path d="m24.55 65.3921-13.0744-7.0669a1 1 0 0 0 -.9512 1.76l13.0742 7.0669a1 1 0 0 0 .9512-1.76z"/><path d="m16.22 64.3-4.7441-2.5644a1 1 0 1 0 -.9512 1.76l4.7439 2.5644a1 1 0 0 0 .9514-1.76z"/></g></g></svg>