<svg height="512" viewBox="0 0 64 64" width="512" xmlns="http://www.w3.org/2000/svg"><g id="Layer_2" data-name="Layer 2"><path d="m48.93 2h-25.86a2 2 0 0 0 -1.6641.8906l-9.4059 14.1094v43a2 2 0 0 0 2 2h44a2 2 0 0 0 2-2v-43l-9.4063-14.1094a2 2 0 0 0 -1.6637-.8906z" fill="#ffbd5a"/><path d="m56 11v44a2 2 0 0 1 -2 2h-42v3a2 2 0 0 0 2 2h44a2 2 0 0 0 2-2v-43z" fill="#e4ad5d"/><path d="m60 17h-48l9.41-14.11a1.9806 1.9806 0 0 1 1.66-.89h25.86a1.9806 1.9806 0 0 1 1.66.89z" fill="#e4ad5d"/><path d="m33 2h6l4 15v13l-7-5-7 5v-13z" fill="#f0f0ff"/><path d="m43 17h-14l4-15h6z" fill="#dcdcf9"/><path d="m16 30a1 1 0 0 1 -1-1v-4a1 1 0 0 1 2 0v4a1 1 0 0 1 -1 1zm1-8v-1a1 1 0 0 0 -2 0v1a1 1 0 0 0 2 0z" fill="#fff"/><circle cx="22" cy="47" fill="#8dc1f3" r="12"/><path d="m22 29a2 2 0 0 1 2 2v4a0 0 0 0 1 0 0h-4a0 0 0 0 1 0 0v-4a2 2 0 0 1 2-2z" fill="#7eaada"/><circle cx="22" cy="47" fill="#a9d1f7" r="8"/><path d="m60.832 16.4453-9.4062-14.1094a2.9946 2.9946 0 0 0 -2.4958-1.3359h-25.86a2.9946 2.9946 0 0 0 -2.4961 1.3359l-9.4059 14.1094a1.0008 1.0008 0 0 0 -.168.5547v20h-7a1 1 0 0 0 0 2h9.8578a.9839.9839 0 0 0 .8336-.2222 10.9865 10.9865 0 0 1 6.3086-2.7322v2.9544a1 1 0 0 0 2 0v-2.9493a11.0113 11.0113 0 0 1 9.9493 9.9493h-1.9493a1 1 0 0 0 0 2h1.9493a11.0113 11.0113 0 0 1 -9.9493 9.9493v-2.9493a1 1 0 0 0 -2 0v2.94a11.0334 11.0334 0 0 1 -7.9365-4.5231.99.99 0 0 0 -.9494-.3935.9484.9484 0 0 0 -.1141-.0234h-4a1 1 0 0 0 0 2h3v5a3.0033 3.0033 0 0 0 3 3h44a3.0033 3.0033 0 0 0 3-3v-43a1.0008 1.0008 0 0 0 -.168-.5547zm-11.07-13 8.3695 12.5547h-14.3636l-3.4666-13h8.6287a.9978.9978 0 0 1 .8317.4453zm-19.762 14.5547h12v10.0566l-5.4189-3.8706a1.0007 1.0007 0 0 0 -1.1622 0l-5.4189 3.8706zm8.2321-15 3.4664 13h-11.397l3.4663-13zm-15.9938.4453a.9978.9978 0 0 1 .8317-.4453h8.6283l-3.4662 13h-14.3636zm.7617 30.6054c-.3311-.0254-.6625-.0507-1-.0507-.3352 0-.6681.02-1 .0457v-3.0457a1 1 0 0 1 2 0zm36 25.9493a1.0009 1.0009 0 0 1 -1 1h-44a1.0009 1.0009 0 0 1 -1-1v-3.6529a12.9853 12.9853 0 1 0 12-21.9837v-3.3634a3 3 0 0 0 -6 0v3.3635a12.9566 12.9566 0 0 0 -5.2868 2.6365h-.7132v-19h15v12a1 1 0 0 0 1.5811.814l6.4189-4.585 6.4189 4.585a1 1 0 0 0 1.5811-.814v-12h15zm-13-13a1 1 0 0 1 1-1h8a1 1 0 0 1 0 2h-8a1 1 0 0 1 -1-1zm10 4a1 1 0 0 1 -1 1h-6a1 1 0 0 1 0-2h6a1 1 0 0 1 1 1zm0 4a1 1 0 0 1 -1 1h-8a1 1 0 0 1 0-2h8a1 1 0 0 1 1 1zm-34-7a1 1 0 0 1 -.6631-1.748l5.9854-5.3086a1 1 0 1 1 1.3261 1.4966l-5.9853 5.308a.9931.9931 0 0 1 -.6631.252zm-10-6a1 1 0 0 1 -1 1h-6a1 1 0 0 1 0-2h6a1 1 0 0 1 1 1zm1 5h-3a1 1 0 0 1 0-2h3a1 1 0 0 1 0 2zm-9-2h3a1 1 0 0 1 0 2h-3a1 1 0 0 1 0-2zm2 9a1 1 0 0 1 -1 1h-1a1 1 0 0 1 0-2h1a1 1 0 0 1 1 1zm6-5a1 1 0 0 1 0 2h-7a1 1 0 0 1 0-2z" fill="#3d436b"/></g></svg>