<svg id="Layer_1" enable-background="new 0 0 512 512" viewBox="0 0 512 512" xmlns="http://www.w3.org/2000/svg"><g><g><path d="m378.4 234.4c0-1.9-1-3.6-2.6-4.6l-47.3-27.3c-5.6-2.9-76.9-44.6-84.7-48.9-1.6-.9-3.6-.9-5.2 0l-132 76.2c-1.7 1-2.7 3.1-2.6 5v152c0 1.9 1 3.6 2.6 4.6l132 76.2c1.9 1.2 4.5.8 6.2-.6 0 .1 131-75.6 131-75.6 1.6-.9 2.6-2.7 2.6-4.6-.1-.4 0-152.1 0-152.4zm-67.5-29.9 4.1 2.4-121.3 69.4-25.7-14.4 121.6-69.6zm-122.7 80.7v34.4l-25.2-14.2v-34.4zm52.9-121 38.1 22-121.8 69.7c-9.5-5.3-28.6-16-38.1-21.4zm-4.2 290.4-122.6-70.8v-140.1l38.2 21.5v43.4c0 1.9 1 3.6 2.7 4.6l35.7 20.1c3.4 2 7.9-.7 7.8-4.6v-37.4l38.2 21.5zm5.2-151.1-37.7-21.2 114.7-65.6 6.6-3.6 37.2 21.5zm125.8 80.3-120.5 69.5v-140.7l120.5-68.8z"/></g><g><path d="m188.2 285.2v34.4l-25.2-14.2v-34.4z" fill="#feddcc"/></g><g><path d="m315.1 206.9-121.3 69.4-25.7-14.4 121.6-69.6c3 1.7 22.9 13.2 25.4 14.6z" fill="#feddcc"/></g><g><path d="m362.9 234.5-120.8 69-37.7-21.2 114.7-65.6 6.6-3.7z" fill="#fec233"/></g><g><path d="m279.2 186.2-121.8 69.7c-9.5-5.3-28.6-16-38.1-21.4l121.7-70.3z" fill="#fec233"/></g><g><path d="m236.9 312.6v141.9l-122.6-70.8v-140l38.2 21.5v43.4c0 1.9 1 3.6 2.7 4.6l35.7 20.1c3.4 2 7.9-.7 7.8-4.6v-37.4z" fill="#f16932"/></g><g><path d="m367.9 243.8v140l-120.5 69.5v-140.7z" fill="#f88d28"/></g><g><path d="m450.1 161.3c-28.7-50.5-76.3-89.5-131.5-107.6-5.7-1.9-57.4-13.2-57.4-11.6v-35.1c.1-3.9-4.8-6.7-8.1-4.4 0 0-102.6 66.4-102.6 66.4-3.1 1.9-3.2 6.8 0 8.8 0 0 102.6 66.3 102.6 66.3 3.2 2.3 8.2-.4 8.1-4.4v-31c.1-4.1 58.9 13.4 63.9 15.7 65.7 29.1 109.5 98.5 107.1 170.3-.9 39.6-14.7 79.1-39.3 110.2-114.9 141-337.5 61.6-347.2-116.9-2.5-32 6.8-62.6 16.6-92.8 3.3-9.7-5.4-11.3-9.4-2.7-83.4 175.3 78.8 363.4 264.9 307.9 144.2-40.2 206.6-211.9 132.3-339.1zm16.5 166c-45.7 197.5-306.6 237.7-403.2 58.1 86.6 148.7 308.7 134.2 368.2-30.2 37-102.4-20.6-218.7-124.6-249.2-16-4.7-33.1-7.4-50.9-7.9-1.5 0-2.8.5-3.8 1.5s-1.6 2.4-1.6 3.8v26.8l-87.7-56.7 87.7-56.7v30.3c0 2.8 2.1 5 4.9 5.2 96.7 4.5 185.5 76 208.8 170.3 8.8 30.9 9.5 70.9 2.2 104.7z"/></g><g><path d="m471.1 294.7c-5 90.1-69.6 171.5-156.3 196.7-96.8 29.7-206.4-16-251.3-106 86.6 148.7 308.7 134.2 368.2-30.2 37-102.4-20.6-218.7-124.6-249.2-16-4.7-33.1-7.4-50.9-7.9-1.5 0-2.8.5-3.8 1.5s-1.6 2.4-1.6 3.8v26.8l-87.7-56.7 87.7-56.7v30.3c0 2.8 2.1 5 4.9 5.2 96.7 4.5 185.5 76 208.8 170.3 6 21.7 8.3 45.9 6.6 72.1z" fill="#806cb6"/></g></g></svg>