<svg id="Icons" viewBox="0 0 60 60" xmlns="http://www.w3.org/2000/svg"><path d="m3 49v4c0 .55.45 1 1 1h54c.55 0 1-.45 1-1v-2c0-.55-.45-1-1-1l-1-1z" fill="#636366"/><path d="m58 38v12h-17v-20l1-1c0-1.1.9-2 2-2h4z" fill="#e22933"/><circle cx="50" cy="54" fill="#31373f" r="5"/><path d="m58 34v4h-9c-.55 0-1-.45-1-1v-10h3c3.87 0 7 3.13 7 7z" fill="#a1ddff"/><path d="m10 50h-7c-1.1 0-2-.9-2-2v-27c0-1.1.9-2 2-2h37c1.1 0 2 .9 2 2v29h-26" fill="#ffaf45"/><circle cx="13" cy="54" fill="#31373f" r="5"/><circle cx="22" cy="18" fill="#e22933" r="17"/><path d="m30.707 10.707-1.414-1.414c-.391-.391-1.024-.391-1.414 0l-5.879 5.879-5.879-5.879c-.391-.391-1.024-.391-1.414 0l-1.414 1.414c-.391.391-.391 1.024 0 1.414l5.879 5.879-5.879 5.879c-.391.391-.391 1.024 0 1.414l1.414 1.414c.391.391 1.024.391 1.414 0l5.879-5.879 5.879 5.879c.391.391 1.024.391 1.414 0l1.414-1.414c.391-.391.391-1.024 0-1.414l-5.879-5.879 5.879-5.879c.391-.391.391-1.024 0-1.414z" fill="#fff"/><path d="m54 46c-.553 0-1-.447-1-1v-2c0-.553.447-1 1-1s1 .447 1 1v2c0 .553-.447 1-1 1z" fill="#a8292f"/></svg>