<svg height="512" viewBox="0 0 64 64" width="512" xmlns="http://www.w3.org/2000/svg"><g id="Search_Money" data-name="Search Money"><path d="m4 4a3 3 0 0 0 -3 3v20a1 1 0 0 0 1 1h7v-24z" fill="#d0dbf7"/><path d="m2.09 4.69a2.96 2.96 0 0 0 -1.09 2.31v20a1.0029 1.0029 0 0 0 1 1h7v-.43a92.017 92.017 0 0 1 -6.91-22.88z" fill="#8ea6ce"/><path d="m42 4h-38a3 3 0 0 1 3 3v48a5 5 0 0 0 5 5h6v-6h27v-47a3 3 0 0 0 -3-3z" fill="#e6ecff"/><path d="m7 22.83v32.17a5.0018 5.0018 0 0 0 5 5h6v-6h14.76c-13.52-7.18-21.3-19.58-25.76-31.17z" fill="#b7c6e2"/><path d="m43 19h-5.17a1 1 0 0 0 -.9859 1.1665 10.8665 10.8665 0 0 1 0 3.667 1 1 0 0 0 .9859 1.1665h5.17a1 1 0 0 0 1-1v-4a1 1 0 0 0 -1-1z" fill="#376cfb"/><g fill="#4294ff"><path d="m58 17h-15a1 1 0 0 0 -1 1v8a1 1 0 0 0 1 1h15a5 5 0 0 0 0-10z"/><path d="m39 40h-26a1 1 0 0 1 0-2h26a1 1 0 0 1 0 2z"/><path d="m31 44h-18a1 1 0 0 1 0-2h18a1 1 0 0 1 0 2z"/><path d="m25 48h-12a1 1 0 0 1 0-2h12a1 1 0 0 1 0 2z"/></g><path d="m17 53v2a5 5 0 0 1 -5 5h38a5 5 0 0 0 5-5v-2z" fill="#d0dbf7"/><circle cx="26" cy="22" fill="#4294ff" r="13"/><path d="m17 23a1 1 0 0 1 -1-1 10.0705 10.0705 0 0 1 7.7788-9.7549 1 1 0 0 1 .4424 1.95 8.0559 8.0559 0 0 0 -6.2212 7.8049 1 1 0 0 1 -1 1z" fill="#376cfb"/><path d="m28 21a1 1 0 0 0 1-1v-.146a2.8482 2.8482 0 0 0 -2-2.709v-.145a1 1 0 0 0 -2 0v.145a2.8439 2.8439 0 0 0 -.4224 5.2622l1.95.9741a.8543.8543 0 0 1 -.3816 1.6187h-.292a.8552.8552 0 0 1 -.854-.854v-.146a1 1 0 0 0 -2 0v.146a2.8482 2.8482 0 0 0 2 2.709v.145a1 1 0 0 0 2 0v-.145a2.8439 2.8439 0 0 0 .4224-5.2622l-1.95-.9741a.8543.8543 0 0 1 .3816-1.6187h.292a.8552.8552 0 0 1 .854.854v.146a1 1 0 0 0 1 1z" fill="#376cfb"/><path d="m23.96 48h-10.96a1 1 0 0 1 0-2h8.77c.7.68 1.43 1.35 2.19 2z" fill="#2965ed"/><path d="m19.81 44h-6.81a1 1 0 0 1 0-2h5.03c.57.68 1.16 1.34 1.78 2z" fill="#2965ed"/><path d="m16.43 40h-3.43a1 1 0 0 1 0-2h1.96c.47.67.96 1.34 1.47 2z" fill="#2965ed"/><path d="m30.97 53h-13.97v2a4.9848 4.9848 0 0 1 -5 5h38a4.96 4.96 0 0 0 1.73-.31 51.7567 51.7567 0 0 1 -20.76-6.69z" fill="#8ea6ce"/></g></svg>