<svg id="Capa_1" enable-background="new 0 0 512 512" height="512" viewBox="0 0 512 512" width="512" xmlns="http://www.w3.org/2000/svg"><g><path d="m462.979 512h-261.295c-7.737 0-14.009-6.272-14.009-14.009v-62.28h174.815c21.078 0 35.075-15.027 35.075-36.105v-287.212c0-21.18 20.306-38.166 41.256-38.166 21.079 0 38.166 17.088 38.166 38.166v.006 385.592c.001 7.736-6.271 14.008-14.008 14.008z" fill="#8bcaff"/><path d="m433.622 399.606v-287.212c0-14.745 9.846-27.45 22.896-33.814-5.29-2.775-11.307-4.352-17.696-4.352-20.951 0-41.256 16.986-41.256 38.166v287.212c0 21.078-13.997 36.106-35.075 36.106h36.056c21.078-.001 35.075-15.028 35.075-36.106z" fill="#60b8fe"/><path d="m223.732 497.991v-62.28h-36.056v62.28c0 7.737 6.272 14.009 14.009 14.009h36.056c-7.737 0-14.009-6.272-14.009-14.009z" fill="#60b8fe"/><path d="m400.656 112.394v287.212c0 21.079-17.087 38.166-38.166 38.166s-41.256-17.087-41.256-38.166v-.002c0-7.262 0-234.911 0-325.376h117.588c-21.078 0-38.166 17.087-38.166 38.166z" fill="#b1dbfc"/><path d="m357.291 399.606v-.002c0-7.262 0-234.911 0-325.376-17.484 0-31.943 0-36.056 0v325.376.002c0 21.079 20.178 38.166 41.256 38.166 6.385 0 12.399-1.576 17.688-4.348-13.08-6.379-22.888-19.125-22.888-33.818z" fill="#8bcaff"/><path d="m73.19 437.772c-.004 0-.008 0-.012 0-21.078 0-38.166-17.087-38.166-38.166v-384.343c0-8.429 6.833-15.263 15.263-15.263h258.787c8.429 0 15.263 6.834 15.263 15.263v384.343c0 21.079 17.087 38.166 38.166 38.166z" fill="#dfebfa"/><path d="m71.068 399.606v-384.343c0-8.429 6.834-15.263 15.263-15.263h-36.056c-8.429 0-15.263 6.834-15.263 15.263v384.343c0 21.079 17.088 38.166 38.166 38.166h.012 36.044c-21.078 0-38.166-17.088-38.166-38.166z" fill="#b1dbfc"/><circle cx="179.668" cy="109.99" fill="#ffd301" r="55.592"/><path d="m184.69 101.967c-7.679-3.177-8.254-4.558-8.254-6.304 0-1.102.522-3.663 5.354-3.663 4.666 0 7.499 1.62 8.859 2.398 1.922 1.102 4.378.217 5.162-1.852l2.114-5.578c.623-1.645-.031-3.498-1.548-4.388-2.771-1.625-5.806-2.667-9.207-3.152v-4.894c0-1.991-1.614-3.606-3.606-3.606h-5.24c-1.991 0-3.606 1.615-3.606 3.606v5.673c-7.849 2.369-12.763 8.577-12.763 16.472 0 10.233 8.207 14.831 16.197 17.963 6.736 2.731 7.3 4.899 7.3 6.717 0 3.453-3.476 4.678-6.453 4.678-3.523 0-7.325-1.133-10.171-3.029-1.945-1.296-4.603-.424-5.394 1.784l-2.028 5.663c-.544 1.518-.014 3.213 1.299 4.151 2.882 2.058 7.055 3.539 11.422 4.122v5.199c0 1.991 1.615 3.606 3.606 3.606h5.325c1.992 0 3.606-1.615 3.606-3.606v-5.936c8.103-2.472 13.355-9.089 13.355-17.223 0-11.123-8.201-15.895-15.329-18.801z" fill="#dfebfa"/><g><path d="m287.251 41.455h-33.417c-4.267 0-7.726-3.459-7.726-7.726s3.459-7.726 7.726-7.726h33.417c4.267 0 7.726 3.459 7.726 7.726s-3.459 7.726-7.726 7.726z" fill="#7b6c79"/></g><g><path d="m165.386 222.344h-16.164c-4.267 0-7.726-3.459-7.726-7.726s3.459-7.726 7.726-7.726h16.164c4.267 0 7.726 3.459 7.726 7.726s-3.459 7.726-7.726 7.726z" fill="#7b6c79"/></g><g><path d="m118.529 222.344h-33.599c-4.267 0-7.726-3.459-7.726-7.726s3.459-7.726 7.726-7.726h33.599c4.267 0 7.726 3.459 7.726 7.726s-3.459 7.726-7.726 7.726z" fill="#7b6c79"/></g><g><path d="m282.056 222.344h-86.761c-4.267 0-7.726-3.459-7.726-7.726s3.459-7.726 7.726-7.726h86.761c4.267 0 7.726 3.459 7.726 7.726s-3.459 7.726-7.726 7.726z" fill="#7b6c79"/></g><g><path d="m165.386 261.261h-16.164c-4.267 0-7.726-3.459-7.726-7.726 0-4.268 3.459-7.726 7.726-7.726h16.164c4.267 0 7.726 3.459 7.726 7.726.001 4.267-3.459 7.726-7.726 7.726z" fill="#7b6c79"/></g><g><path d="m118.529 261.261h-33.599c-4.267 0-7.726-3.459-7.726-7.726 0-4.268 3.459-7.726 7.726-7.726h33.599c4.267 0 7.726 3.459 7.726 7.726.001 4.267-3.459 7.726-7.726 7.726z" fill="#7b6c79"/></g><g><path d="m282.056 261.261h-86.761c-4.267 0-7.726-3.459-7.726-7.726 0-4.268 3.459-7.726 7.726-7.726h86.761c4.267 0 7.726 3.459 7.726 7.726.001 4.267-3.459 7.726-7.726 7.726z" fill="#7b6c79"/></g><g><path d="m165.386 300.178h-16.164c-4.267 0-7.726-3.459-7.726-7.726s3.459-7.726 7.726-7.726h16.164c4.267 0 7.726 3.459 7.726 7.726s-3.459 7.726-7.726 7.726z" fill="#7b6c79"/></g><g><path d="m118.529 300.178h-33.599c-4.267 0-7.726-3.459-7.726-7.726s3.459-7.726 7.726-7.726h33.599c4.267 0 7.726 3.459 7.726 7.726s-3.459 7.726-7.726 7.726z" fill="#7b6c79"/></g><g><path d="m282.056 300.178h-86.761c-4.267 0-7.726-3.459-7.726-7.726s3.459-7.726 7.726-7.726h86.761c4.267 0 7.726 3.459 7.726 7.726s-3.459 7.726-7.726 7.726z" fill="#7b6c79"/></g><g><path d="m165.386 339.093h-16.164c-4.267 0-7.726-3.459-7.726-7.726s3.459-7.726 7.726-7.726h16.164c4.267 0 7.726 3.459 7.726 7.726s-3.459 7.726-7.726 7.726z" fill="#7b6c79"/></g><g><path d="m118.529 339.093h-33.599c-4.267 0-7.726-3.459-7.726-7.726s3.459-7.726 7.726-7.726h33.599c4.267 0 7.726 3.459 7.726 7.726s-3.459 7.726-7.726 7.726z" fill="#7b6c79"/></g><g><path d="m282.056 339.093h-86.761c-4.267 0-7.726-3.459-7.726-7.726s3.459-7.726 7.726-7.726h86.761c4.267 0 7.726 3.459 7.726 7.726s-3.459 7.726-7.726 7.726z" fill="#7b6c79"/></g><g><path d="m165.386 378.01h-16.164c-4.267 0-7.726-3.459-7.726-7.726 0-4.268 3.459-7.726 7.726-7.726h16.164c4.267 0 7.726 3.459 7.726 7.726.001 4.267-3.459 7.726-7.726 7.726z" fill="#7b6c79"/></g><g><path d="m118.529 378.01h-33.599c-4.267 0-7.726-3.459-7.726-7.726 0-4.268 3.459-7.726 7.726-7.726h33.599c4.267 0 7.726 3.459 7.726 7.726.001 4.267-3.459 7.726-7.726 7.726z" fill="#7b6c79"/></g><g><path d="m282.056 378.01h-86.761c-4.267 0-7.726-3.459-7.726-7.726 0-4.268 3.459-7.726 7.726-7.726h86.761c4.267 0 7.726 3.459 7.726 7.726.001 4.267-3.459 7.726-7.726 7.726z" fill="#7b6c79"/></g></g></svg>