<svg id="Icons" height="512" viewBox="0 0 60 60" width="512" xmlns="http://www.w3.org/2000/svg"><path d="m26 29v-20h-1.94a1.055 1.055 0 0 1 -.75-1.8l5.94-5.89a1.067 1.067 0 0 1 1.5 0l5.94 5.89a1.055 1.055 0 0 1 -.75 1.8h-1.94v20z" fill="#90cf4a"/><path d="m38 29a2 2 0 0 0 -2-2h-12a2 2 0 0 0 0 4 2 2 0 0 0 0 4 2 2 0 0 0 0 4 2 2 0 0 0 0 4 2 2 0 0 0 0 4 2 2 0 0 0 0 4 2 2 0 0 0 0 4 2 2 0 0 0 0 4h12a2 2 0 0 0 0-4 2 2 0 0 0 0-4 2 2 0 0 0 0-4 2 2 0 0 0 0-4 2 2 0 0 0 0-4 2 2 0 0 0 0-4 2 2 0 0 0 0-4 2 2 0 0 0 2-2z" fill="#fccb55"/><path d="m16 51h-1a2 2 0 0 0 0-4h-12a2 2 0 0 0 0 4h1a2 2 0 0 0 0 4h-1a2 2 0 0 0 0 4h12a2 2 0 0 0 0-4h1a2 2 0 0 0 0-4z" fill="#fccb55"/><path d="m57 55h-1a2 2 0 0 0 0-4h1a2 2 0 0 0 0-4h-1a2 2 0 0 0 0-4h-12a2 2 0 0 0 0 4h1a2 2 0 0 0 0 4h-1a2 2 0 0 0 0 4h1a2 2 0 0 0 0 4h12a2 2 0 0 0 0-4z" fill="#fccb55"/><g fill="#e2af40"><rect height="4" rx="2" width="16" x="22" y="55"/><rect height="4" rx="2" width="16" x="22" y="47"/><rect height="4" rx="2" width="16" x="22" y="39"/><rect height="4" rx="2" width="16" x="22" y="31"/><rect height="4" rx="2" width="16" x="2" y="51"/><rect height="4" rx="2" width="16" x="43" y="47"/><rect height="4" rx="2" width="16" x="43" y="55"/></g><path d="m17.707 12.293a1 1 0 0 0 -1.414 0l-2 2a1 1 0 0 0 1.414 1.414l.293-.293v5.586a1 1 0 0 0 2 0v-5.586l.293.293a1 1 0 0 0 1.414-1.414z" fill="#90cf4a"/><path d="m7.707 18.293a1 1 0 0 0 -1.414 0l-2 2a1 1 0 0 0 1.414 1.414l.293-.293v5.586a1 1 0 0 0 2 0v-5.586l.293.293a1 1 0 0 0 1.414-1.414z" fill="#90cf4a"/><path d="m55.707 20.293-2-2a1 1 0 0 0 -1.414 0l-2 2a1 1 0 0 0 1.414 1.414l.293-.293v5.586a1 1 0 0 0 2 0v-5.586l.293.293a1 1 0 0 0 1.414-1.414z" fill="#90cf4a"/><path d="m43.707 12.293a1 1 0 0 0 -1.414 0l-2 2a1 1 0 0 0 1.414 1.414l.293-.293v5.586a1 1 0 0 0 2 0v-5.586l.293.293a1 1 0 0 0 1.414-1.414z" fill="#90cf4a"/></svg>