<svg height="511pt" viewBox="-5 1 511 511.99998" width="511pt" xmlns="http://www.w3.org/2000/svg"><path d="m251.066406 60.128906-250.566406 60.132813v355.359375c0 20.097656 16.289062 36.378906 36.378906 36.378906h428.371094c20.089844 0 36.382812-16.28125 36.382812-36.378906v-355.359375zm0 0" fill="#d9d9da"/><path d="m.5 120.261719h501.132812v31.226562h-501.132812zm0 0" fill="#bebebf"/><path d="m251.066406 60.128906-197.808594 60.132813v338.988281h395.617188v-338.988281zm0 0" fill="#ecebed"/><path d="m237.058594 382.476562c-3.292969-33.410156-24.894532-56.148437-24.894532-56.148437h-68.585937s-21.601563 22.742187-24.894531 56.148437c-.445313 4.546876 3.15625 8.480469 7.722656 8.480469h102.933594c4.566406 0 8.167968-3.933593 7.71875-8.480469zm0 0" fill="#64c6fb"/><path d="m139.289062 382.476562c3.292969-33.410156 24.894532-56.148437 24.894532-56.148437h-20.605469s-21.601563 22.742187-24.894531 56.148437c-.449219 4.546876 3.152344 8.480469 7.722656 8.480469h20.601562c-4.566406 0-8.167968-3.933593-7.71875-8.480469zm0 0" fill="#59b1e0"/><path d="m260.433594 253.246094c0-44.355469-36.964844-80.316406-82.5625-80.316406s-82.5625 35.960937-82.5625 80.316406c0 44.359375 36.964844 80.316406 82.5625 80.316406s82.5625-35.957031 82.5625-80.316406zm0 0" fill="#fdc079"/><path d="m115.914062 253.246094c0-40.960938 31.527344-74.734375 72.257813-79.671875-3.375-.40625-6.808594-.644531-10.300781-.644531-45.597656 0-82.5625 35.960937-82.5625 80.320312 0 44.355469 36.964844 80.316406 82.5625 80.316406 3.492187 0 6.925781-.238281 10.300781-.644531-40.730469-4.9375-72.257813-38.710937-72.257813-79.675781zm0 0" fill="#fdb35e"/><path d="m131.5625 271.90625c-4.269531 0-7.726562-3.457031-7.726562-7.722656v-8.382813c0-4.269531 3.457031-7.726562 7.726562-7.726562 4.265625 0 7.722656 3.457031 7.722656 7.726562v8.382813c0 4.265625-3.457031 7.722656-7.722656 7.722656zm0 0" fill="#494a59"/><path d="m224.183594 271.90625c-4.269532 0-7.726563-3.457031-7.726563-7.722656v-8.382813c0-4.269531 3.457031-7.726562 7.726563-7.726562 4.265625 0 7.726562 3.457031 7.726562 7.726562v8.382813c0 4.265625-3.460937 7.722656-7.726562 7.722656zm0 0" fill="#494a59"/><path d="m177.871094 276.382812c-6.683594 0-12.96875-2.808593-17.246094-7.699218-2.808594-3.214844-2.480469-8.09375.730469-10.902344 3.214843-2.808594 8.09375-2.480469 10.902343.730469 1.34375 1.535156 3.386719 2.414062 5.613282 2.414062 2.226562 0 4.269531-.878906 5.613281-2.414062 2.808594-3.214844 7.6875-3.539063 10.902344-.734375 3.210937 2.808594 3.539062 7.691406.730469 10.902344-4.273438 4.894531-10.5625 7.703124-17.246094 7.703124zm0 0" fill="#494a59"/><g fill="#64c6fb"><path d="m406.820312 195.414062h-111.839843c-4.265625 0-7.726563-3.457031-7.726563-7.726562 0-4.265625 3.460938-7.726562 7.726563-7.726562h111.839843c4.269532 0 7.726563 3.460937 7.726563 7.726562 0 4.269531-3.457031 7.726562-7.726563 7.726562zm0 0"/><path d="m406.820312 242.542969h-111.839843c-4.265625 0-7.726563-3.460938-7.726563-7.726563s3.460938-7.726562 7.726563-7.726562h111.839843c4.269532 0 7.726563 3.460937 7.726563 7.726562s-3.457031 7.726563-7.726563 7.726563zm0 0"/><path d="m406.820312 289.671875h-111.839843c-4.265625 0-7.726563-3.460937-7.726563-7.726563 0-4.265624 3.460938-7.726562 7.726563-7.726562h111.839843c4.269532 0 7.726563 3.460938 7.726563 7.726562 0 4.265626-3.457031 7.726563-7.726563 7.726563zm0 0"/><path d="m406.820312 336.800781h-111.839843c-4.265625 0-7.726563-3.460937-7.726563-7.726562 0-4.269531 3.460938-7.726563 7.726563-7.726563h111.839843c4.269532 0 7.726563 3.457032 7.726563 7.726563 0 4.265625-3.457031 7.726562-7.726563 7.726562zm0 0"/><path d="m406.820312 383.925781h-111.839843c-4.265625 0-7.726563-3.457031-7.726563-7.726562 0-4.265625 3.460938-7.726563 7.726563-7.726563h111.839843c4.269532 0 7.726563 3.460938 7.726563 7.726563 0 4.269531-3.457031 7.726562-7.726563 7.726562zm0 0"/></g><path d="m501.632812 36.378906v83.882813h-501.132812v-83.882813c0-20.097656 16.289062-36.378906 36.378906-36.378906h428.371094c20.089844 0 36.382812 16.28125 36.382812 36.378906zm0 0" fill="#59b1e0"/><path d="m71.183594 42.203125c-9.902344 0-17.925782 8.027344-17.925782 17.925781 0 9.902344 8.023438 17.929688 17.925782 17.929688 9.898437 0 17.925781-8.027344 17.925781-17.929688 0-9.898437-8.027344-17.925781-17.925781-17.925781zm0 0" fill="#fc595a"/><path d="m139.234375 42.203125c-9.898437 0-17.925781 8.027344-17.925781 17.925781 0 9.902344 8.027344 17.929688 17.925781 17.929688 9.902344 0 17.925781-8.027344 17.925781-17.929688 0-9.898437-8.023437-17.925781-17.925781-17.925781zm0 0" fill="#fdc079"/><path d="m207.289062 42.203125c-9.902343 0-17.925781 8.027344-17.925781 17.925781 0 9.902344 8.023438 17.929688 17.925781 17.929688 9.898438 0 17.925782-8.027344 17.925782-17.929688 0-9.898437-8.027344-17.925781-17.925782-17.925781zm0 0" fill="#b6d97a"/><path d="m53.257812 120.261719h395.617188v31.226562h-395.617188zm0 0" fill="#dfdfe0"/></svg>