<svg id="Capa_1" enable-background="new 0 0 497.311 497.311" height="512" viewBox="0 0 497.311 497.311" width="512" xmlns="http://www.w3.org/2000/svg"><g><path d="m472.83 210.264v-88.572h-445.22c-15.25 0-27.61 12.36-27.61 27.61v24.7l37.413 48.388h440.833l4.777-12.126z" fill="#f37c7c"/><g><path d="m472.83 121.692h-290.006v34.612c0 31.227 25.405 56.631 56.631 56.631h19.7l10.963 9.455h60.892v-9.455h129.67c4.171 0 8.236-.459 12.151-1.323v-89.92z" fill="#ee6161"/><path d="m54.671 121.692h-27.061c-15.25 0-27.61 12.36-27.61 27.61v24.7l37.413 48.388h17.258z" fill="#ee6161"/><g id="XMLID_174_"><g><path d="m497.31 174.002v295.42c0 15.25-12.36 27.6-27.6 27.6h-442.1c-15.25 0-27.61-12.35-27.61-27.6v-295.42z" fill="#f9f3f1"/></g></g><g><path d="m253.991 242.873h-211.942c-4.142 0-7.5-3.358-7.5-7.5s3.358-7.5 7.5-7.5h211.941c4.142 0 7.5 3.358 7.5 7.5s-3.357 7.5-7.499 7.5z" fill="#efe2dd"/></g><g><path d="m449.808 304.241h-407.759c-4.142 0-7.5-3.358-7.5-7.5s3.358-7.5 7.5-7.5h407.759c4.142 0 7.5 3.358 7.5 7.5s-3.358 7.5-7.5 7.5z" fill="#efe2dd"/></g><g><path d="m449.808 365.609h-340.813c-4.142 0-7.5-3.358-7.5-7.5s3.358-7.5 7.5-7.5h340.813c4.142 0 7.5 3.358 7.5 7.5s-3.358 7.5-7.5 7.5z" fill="#efe2dd"/></g><g><path d="m449.808 426.978h-407.759c-4.142 0-7.5-3.358-7.5-7.5s3.358-7.5 7.5-7.5h407.759c4.142 0 7.5 3.358 7.5 7.5s-3.358 7.5-7.5 7.5z" fill="#efe2dd"/></g><g><path d="m73.053 365.609h-31.004c-4.142 0-7.5-3.358-7.5-7.5s3.358-7.5 7.5-7.5h31.003c4.142 0 7.5 3.358 7.5 7.5s-3.357 7.5-7.499 7.5z" fill="#efe2dd"/></g><path d="m333.841 153.223v20.779h-148.17c7.45 22.583 28.737 38.934 53.784 38.934h19.7l32.188 27.758c4.361 3.761 9.918 5.833 15.65 5.833 13.244 0 24.018-10.768 24.018-24.003v-9.587h129.669c13.96 0 26.747-5.087 36.63-13.492v-25.441-20.779h-163.469z" fill="#f3eae6"/><path d="m460.68.289h-221.225c-20.231 0-36.631 16.4-36.631 36.631v119.383c0 20.231 16.4 36.631 36.631 36.631h27.132l37.817 32.613c2.59 2.233 6.606.393 6.606-3.026v-29.587h149.67c20.231 0 36.631-16.4 36.631-36.631v-119.382c0-20.231-16.4-36.632-36.631-36.632z" fill="#a6e7f0"/><g><g><path d="m348.798 137.11c-4.142 0-7.5-3.358-7.5-7.5v-33.342c0-4.142 3.358-7.5 7.5-7.5 6.749 0 13.029-2.7 17.683-7.602 4.651-4.898 7.019-11.323 6.668-18.09-.659-12.682-11.132-22.816-23.844-23.072-12.316-.238-22.953 8.766-24.656 20.969-.157 1.119-.236 2.266-.236 3.41 0 4.142-3.358 7.5-7.5 7.5s-7.5-3.358-7.5-7.5c0-1.836.128-3.682.38-5.485 2.752-19.722 19.893-34.283 39.813-33.892 20.537.414 37.458 16.794 38.521 37.292.566 10.916-3.258 21.284-10.77 29.195-5.758 6.064-13.058 10.041-21.061 11.569v26.546c.002 4.144-3.356 7.502-7.498 7.502z" fill="#f9f3f1"/></g></g><g><path d="m348.798 170.629c-4.142 0-7.5-3.358-7.5-7.5v-6.889c0-4.142 3.358-7.5 7.5-7.5s7.5 3.358 7.5 7.5v6.889c0 4.142-3.358 7.5-7.5 7.5z" fill="#f9f3f1"/></g></g><path d="m82.281 458.282c-15.25 0-27.61-12.35-27.61-27.6v-256.68h-54.671v295.42c0 15.25 12.36 27.6 27.61 27.6h442.1c15.24 0 27.6-12.35 27.6-27.6v-11.14z" fill="#f3eae6"/><g fill="#e1d3ce"><path d="m42.049 242.873h12.621v-15h-12.621c-4.142 0-7.5 3.358-7.5 7.5s3.358 7.5 7.5 7.5z"/><path d="m42.049 304.241h12.621v-15h-12.621c-4.142 0-7.5 3.358-7.5 7.5s3.358 7.5 7.5 7.5z"/><path d="m42.049 365.609h12.621v-15h-12.621c-4.142 0-7.5 3.358-7.5 7.5s3.358 7.5 7.5 7.5z"/><path d="m42.049 426.978h12.621v-15h-12.621c-4.142 0-7.5 3.358-7.5 7.5s3.358 7.5 7.5 7.5z"/></g></g></svg>