<svg height="512" viewBox="0 0 55 58" width="512" xmlns="http://www.w3.org/2000/svg"><g id="Page-1" fill="none" fill-rule="evenodd"><g id="073---Delivery-Time-Limit" fill-rule="nonzero"><path id="Shape" d="m44 54h-42c-1.10320187-.0032948-1.9967052-.8967981-2-2v-38l14-14h28c1.1032019.0032948 1.9967052.89679813 2 2z" fill="#f9eab0"/><path id="Shape" d="m14 0v12c-.0032948 1.1032019-.8967981 1.9967052-2 2h-12z" fill="#f3d55b"/><path id="Shape" d="m40 10c-.5522847 0-1-.44771525-1-1v-4h-4c-.5522847 0-1-.44771525-1-1s.4477153-1 1-1h5c.5522847 0 1 .44771525 1 1v5c0 .55228475-.4477153 1-1 1z" fill="#fff"/><rect id="Rectangle-path" fill="#cb8252" height="20" rx="3" width="20" x="5" y="29"/><path id="Shape" d="m20.0000005 29-.0000005 8c.0003213.3317301-.1638849.642028-.4383504.828344-.2744656.186316-.6234617.2243964-.9316496.101656l-3.26-1.31c-.2384602-.0899839-.5015398-.0899839-.74 0l-3.26 1.31c-.3081879.1227404-.657184.08466-.9316496-.101656-.2744655-.186316-.43867166-.4966139-.4383504-.828344l-.00000047-8z" fill="#fac176"/><path id="Shape" d="m12 46h-3c-.55228475 0-1-.4477153-1-1s.44771525-1 1-1h3c.5522847 0 1 .4477153 1 1s-.4477153 1-1 1z" fill="#805333"/><g fill="#a59078"><path id="Shape" d="m20 20h-15c-.55228475 0-1-.4477153-1-1s.44771525-1 1-1h15c.5522847 0 1 .4477153 1 1s-.4477153 1-1 1z"/><path id="Shape" d="m20 25h-15c-.55228475 0-1-.4477153-1-1s.44771525-1 1-1h15c.5522847 0 1 .4477153 1 1s-.4477153 1-1 1z"/><path id="Shape" d="m39 20h-15c-.5522847 0-1-.4477153-1-1s.4477153-1 1-1h15c.5522847 0 1 .4477153 1 1s-.4477153 1-1 1z"/><path id="Shape" d="m39 25h-15c-.5522847 0-1-.4477153-1-1s.4477153-1 1-1h15c.5522847 0 1 .4477153 1 1s-.4477153 1-1 1z"/></g><rect id="Rectangle-path" fill="#a56a43" height="5" rx="2" width="22" x="33" y="28"/><rect id="Rectangle-path" fill="#a56a43" height="5" rx="2" width="22" x="33" y="53"/><path id="Shape" d="m53 33v1c0 4.9705627-4.0294373 9-9 9s-9-4.0294373-9-9v-1z" fill="#3b97d3"/><path id="Shape" d="m53 52v1h-18v-1c0-4.9705627 4.0294373-9 9-9s9 4.0294373 9 9z" fill="#f0c419"/></g></g></svg>