<svg id="Layer_1" enable-background="new 0 0 413.5 512" viewBox="0 0 413.5 512" xmlns="http://www.w3.org/2000/svg" xmlns:xlink="http://www.w3.org/1999/xlink"><linearGradient id="lg1"><stop offset="0" stop-color="#7b7da1"/><stop offset=".3104" stop-color="#6d6f93"/><stop offset=".8987" stop-color="#494c6d"/><stop offset="1" stop-color="#424566"/></linearGradient><linearGradient id="SVGID_1_" gradientUnits="userSpaceOnUse" x1="21.191" x2="279.368" xlink:href="#lg1" y1="3.009" y2="510.377"/><linearGradient id="lg2"><stop offset="0" stop-color="#a1a4c7"/><stop offset="1" stop-color="#a1a4c7" stop-opacity="0"/></linearGradient><linearGradient id="SVGID_2_" gradientUnits="userSpaceOnUse" x1="15.151" x2="28.47" xlink:href="#lg2" y1="13.62" y2="25.7"/><linearGradient id="lg3"><stop offset="0" stop-color="#32365c"/><stop offset="1" stop-color="#32365c" stop-opacity="0"/></linearGradient><linearGradient id="SVGID_3_" gradientTransform="matrix(-1 0 0 1 -11540.421 0)" gradientUnits="userSpaceOnUse" x1="-11843.33" x2="-11814.567" xlink:href="#lg3" y1="11.204" y2="27.105"/><linearGradient id="SVGID_4_" gradientTransform="matrix(-1 0 0 -1 -11540.421 -12645.592)" gradientUnits="userSpaceOnUse" x1="-11829.27" x2="-11807.51" y1="-13153.523" y2="-13128.892"><stop offset="0" stop-color="#2a2d4d"/><stop offset="1" stop-color="#2a2d4d" stop-opacity="0"/></linearGradient><linearGradient id="SVGID_5_" gradientTransform="matrix(-1 0 0 -1 -11540.421 -12854.347)" gradientUnits="userSpaceOnUse" x1="-11690.348" x2="-11690.348" y1="-13365.948" y2="-13350.405"><stop offset="0" stop-color="#292c4d"/><stop offset="1" stop-color="#292c4d" stop-opacity="0"/></linearGradient><linearGradient id="SVGID_6_" gradientUnits="userSpaceOnUse" x1="-5.11" x2="32.651" xlink:href="#lg2" y1="520.65" y2="482.889"/><linearGradient id="SVGID_7_" gradientTransform="matrix(-1 0 0 1 -11540.421 0)" gradientUnits="userSpaceOnUse" x1="-11839.179" x2="-11821.342" xlink:href="#lg3" y1="256" y2="256"/><linearGradient id="SVGID_8_" gradientUnits="userSpaceOnUse" x1="149.927" x2="149.927" xlink:href="#lg2" y1="-2.637" y2="16.054"/><linearGradient id="SVGID_9_" gradientUnits="userSpaceOnUse" x1="1.096" x2="19.691" xlink:href="#lg2" y1="256" y2="256"/><linearGradient id="lg4"><stop offset="0" stop-color="#e9edff"/><stop offset="1" stop-color="#c4cbff"/></linearGradient><linearGradient id="SVGID_10_" gradientUnits="userSpaceOnUse" x1="30.36" x2="270.149" xlink:href="#lg4" y1="21.028" y2="492.259"/><linearGradient id="lg5"><stop offset=".00000187801" stop-color="#a1b3ff"/><stop offset="1" stop-color="#a1b3ff" stop-opacity="0"/></linearGradient><linearGradient id="SVGID_11_" gradientUnits="userSpaceOnUse" x1="277.11" x2="259.188" xlink:href="#lg5" y1="256" y2="256"/><linearGradient id="SVGID_12_" gradientUnits="userSpaceOnUse" x1="149.927" x2="149.927" xlink:href="#lg5" y1="492.032" y2="473.554"/><linearGradient id="lg6"><stop offset=".00000211276" stop-color="#fff"/><stop offset="1" stop-color="#fff" stop-opacity="0"/></linearGradient><linearGradient id="SVGID_13_" gradientUnits="userSpaceOnUse" x1="20.09" x2="40.429" xlink:href="#lg6" y1="256" y2="256"/><linearGradient id="SVGID_14_" gradientUnits="userSpaceOnUse" x1="149.927" x2="149.927" xlink:href="#lg6" y1="20.413" y2="36.444"/><linearGradient id="SVGID_15_" gradientUnits="userSpaceOnUse" x1="149.927" x2="149.927" xlink:href="#lg1" y1="460.247" y2="480.737"/><linearGradient id="lg7"><stop offset="0" stop-color="#9093bd"/><stop offset=".1833" stop-color="#898cb5"/><stop offset=".4669" stop-color="#75789f"/><stop offset=".8134" stop-color="#56597c"/><stop offset="1" stop-color="#424566"/></linearGradient><linearGradient id="SVGID_16_" gradientUnits="userSpaceOnUse" x1="149.927" x2="149.927" xlink:href="#lg7" y1="464.891" y2="475.773"/><linearGradient id="SVGID_17_" gradientUnits="userSpaceOnUse" x1="149.927" x2="149.927" xlink:href="#lg1" y1="31.258" y2="57.954"/><linearGradient id="SVGID_18_" gradientUnits="userSpaceOnUse" x1="149.927" x2="149.927" xlink:href="#lg7" y1="34.05" y2="53.865"/><linearGradient id="SVGID_19_" gradientUnits="userSpaceOnUse" x1="117.094" x2="117.094" xlink:href="#lg1" y1="35.6" y2="49.558"/><linearGradient id="SVGID_20_" gradientUnits="userSpaceOnUse" x1="117.094" x2="117.094" xlink:href="#lg7" y1="38.115" y2="49.856"/><linearGradient id="SVGID_21_" gradientUnits="userSpaceOnUse" x1="116.715" x2="118.582" y1="41.402" y2="44.801"><stop offset="0" stop-color="#b8bad9"/><stop offset=".1478" stop-color="#b0b2d1"/><stop offset=".3764" stop-color="#9a9dbc"/><stop offset=".6572" stop-color="#777999"/><stop offset=".977" stop-color="#46496a"/><stop offset="1" stop-color="#424566"/></linearGradient><linearGradient id="lg8"><stop offset="0" stop-color="#9093bd"/><stop offset="1" stop-color="#424566"/></linearGradient><linearGradient id="SVGID_22_" gradientUnits="userSpaceOnUse" x1="293.455" x2="299.764" xlink:href="#lg8" y1="169.87" y2="169.87"/><linearGradient id="SVGID_23_" gradientUnits="userSpaceOnUse" x1="-1.434" x2="3.773" xlink:href="#lg8" y1="164.811" y2="164.811"/><linearGradient id="SVGID_24_" gradientUnits="userSpaceOnUse" x1="65.324" x2="202.973" xlink:href="#lg5" y1="82.24" y2="219.889"/><linearGradient id="SVGID_25_" gradientUnits="userSpaceOnUse" x1="105.26" x2="105.26" y1="59.528" y2="202.281"><stop offset="0" stop-color="#ff7f5c"/><stop offset=".1532" stop-color="#ff7957"/><stop offset=".3599" stop-color="#ff6849"/><stop offset=".5972" stop-color="#ff4b33"/><stop offset=".8552" stop-color="#ff2414"/><stop offset=".9959" stop-color="#ff0c00"/></linearGradient><linearGradient id="SVGID_26_" gradientUnits="userSpaceOnUse" x1="105.268" x2="105.268" xlink:href="#lg4" y1="79.034" y2="132.727"/><radialGradient id="SVGID_27_" cx="103.872" cy="105.274" gradientUnits="userSpaceOnUse" r="31.012"><stop offset=".7053" stop-color="#99acff" stop-opacity="0"/><stop offset="1" stop-color="#99acff"/></radialGradient><radialGradient id="SVGID_28_" cx="107.589" cy="108.796" gradientTransform="matrix(.707 .707 -.669 .669 104.25 -40.018)" gradientUnits="userSpaceOnUse" r="32.78"><stop offset=".6733" stop-color="#fff" stop-opacity="0"/><stop offset="1" stop-color="#fff"/></radialGradient><linearGradient id="SVGID_29_" gradientUnits="userSpaceOnUse" x1="52.429" x2="171.353" xlink:href="#lg5" y1="224.496" y2="343.42"/><linearGradient id="SVGID_30_" gradientUnits="userSpaceOnUse" x1="52.813" x2="204.149" xlink:href="#lg1" y1="224.878" y2="376.214"/><linearGradient id="SVGID_31_" gradientUnits="userSpaceOnUse" x1="167.816" x2="401.506" y1="286.909" y2="520.599"><stop offset="0" stop-color="#ffed81"/><stop offset=".2348" stop-color="#ffd968"/><stop offset=".7302" stop-color="#ffa629"/><stop offset="1" stop-color="#ff8804"/></linearGradient><linearGradient id="lg9"><stop offset=".00000187801" stop-color="#ff6b06"/><stop offset="1" stop-color="#ff6b06" stop-opacity="0"/></linearGradient><linearGradient id="SVGID_32_" gradientTransform="matrix(1 0 0 -1 0 -10747.565)" gradientUnits="userSpaceOnUse" x1="285.415" x2="285.415" xlink:href="#lg9" y1="-11267.327" y2="-11240.022"/><linearGradient id="SVGID_33_" gradientUnits="userSpaceOnUse" x1="416.764" x2="399.104" xlink:href="#lg9" y1="404.508" y2="404.508"/><linearGradient id="lg10"><stop offset=".00000250401" stop-color="#fffcf0"/><stop offset="1" stop-color="#fffcf0" stop-opacity="0"/></linearGradient><linearGradient id="SVGID_34_" gradientUnits="userSpaceOnUse" x1="285.415" x2="285.415" xlink:href="#lg10" y1="289.255" y2="316.561"/><linearGradient id="SVGID_35_" gradientUnits="userSpaceOnUse" x1="154.181" x2="174.745" xlink:href="#lg10" y1="404.508" y2="404.508"/><linearGradient id="lg11"><stop offset="0" stop-color="#efa33d"/><stop offset="1" stop-color="#a05223"/></linearGradient><linearGradient id="SVGID_36_" gradientUnits="userSpaceOnUse" x1="194.312" x2="242.538" xlink:href="#lg11" y1="437.95" y2="486.176"/><linearGradient id="SVGID_37_" gradientUnits="userSpaceOnUse" x1="254.084" x2="314.027" xlink:href="#lg11" y1="298.353" y2="358.295"/><linearGradient id="SVGID_38_" gradientUnits="userSpaceOnUse" x1="285.416" x2="285.416" y1="292.809" y2="316.075"><stop offset="0" stop-color="#ffbf69"/><stop offset="1" stop-color="#ffbf69" stop-opacity="0"/></linearGradient><g><g><g><path d="m51.5 512c-26.6 0-48.2-21.6-48.2-48.2v-415.6c0-26.6 21.6-48.2 48.2-48.2h196.9c26.6 0 48.2 21.6 48.2 48.2v415.7c0 26.6-21.6 48.2-48.2 48.2h-196.9z" fill="url(#SVGID_1_)"/><g><path d="m70.1 66.4v-66.4h-18.6c-26.6 0-48.2 21.6-48.2 48.2v18.3h66.8z" fill="url(#SVGID_2_)"/><path d="m229.7 66.4v-66.4h18.6c26.6 0 48.2 21.6 48.2 48.2v18.3h-66.8z" fill="url(#SVGID_3_)"/><path d="m229.7 445.6v66.4h18.6c26.6 0 48.2-21.6 48.2-48.2v-18.3h-66.8z" fill="url(#SVGID_4_)"/><path d="m3.3 461.5v2.3c0 26.6 21.6 48.2 48.2 48.2h196.9c26.6 0 48.2-21.6 48.2-48.2v-2.3z" fill="url(#SVGID_5_)"/><path d="m70.1 445.6v66.4h-18.6c-26.6 0-48.2-21.6-48.2-48.2v-18.3h66.8z" fill="url(#SVGID_6_)"/><path d="m269.9 5.1c15.7 7.9 26.6 24.2 26.6 43v415.7c0 18.8-10.8 35.1-26.6 43z" fill="url(#SVGID_7_)"/><path d="m296.5 50.5v-2.3c0-26.6-21.6-48.2-48.2-48.2h-196.8c-26.6 0-48.2 21.6-48.2 48.2v2.3z" fill="url(#SVGID_8_)"/><path d="m29.9 5.1c-15.7 7.9-26.6 24.3-26.6 43.1v415.7c0 18.8 10.8 35.1 26.6 43z" fill="url(#SVGID_9_)"/></g></g><g><path d="m276.7 463.8c0 15.7-12.7 28.3-28.3 28.3h-196.9c-15.7 0-28.3-12.7-28.3-28.3v-415.6c0-15.7 12.7-28.3 28.3-28.3h196.9c15.7 0 28.3 12.7 28.3 28.3z" fill="url(#SVGID_10_)"/><g><path d="m248.4 19.8h-14.4v472.4h14.3c15.7 0 28.3-12.7 28.3-28.3v-415.7c.1-15.7-12.6-28.4-28.2-28.4z" fill="url(#SVGID_11_)"/><path d="m23.2 455.4v8.5c0 15.7 12.7 28.3 28.3 28.3h196.9c15.7 0 28.3-12.7 28.3-28.3v-8.5z" fill="url(#SVGID_12_)"/><path d="m51.5 492.2h14.3v-472.4h-14.3c-15.7 0-28.3 12.7-28.3 28.3v415.7c0 15.7 12.6 28.4 28.3 28.4z" fill="url(#SVGID_13_)"/><path d="m276.7 64.4v-16.2c0-15.7-12.7-28.3-28.3-28.3h-196.9c-15.7 0-28.3 12.7-28.3 28.3v16.2z" fill="url(#SVGID_14_)"/></g></g><g><g><path d="m197.4 476.5h-94.9c-3.5 0-6.3-2.8-6.3-6.3s2.8-6.3 6.3-6.3h94.9c3.5 0 6.3 2.8 6.3 6.3s-2.8 6.3-6.3 6.3z" fill="url(#SVGID_15_)"/><path d="m102.5 473.5c-1.9 0-3.4-1.5-3.4-3.4s1.5-3.4 3.4-3.4h94.9c1.9 0 3.4 1.5 3.4 3.4s-1.5 3.4-3.4 3.4z" fill="url(#SVGID_16_)"/></g><g><path d="m183.2 53.6h-66.5c-6.4 0-11.5-5.2-11.5-11.5 0-6.4 5.2-11.5 11.5-11.5h66.5c6.4 0 11.5 5.2 11.5 11.5 0 6.4-5.2 11.5-11.5 11.5z" fill="url(#SVGID_17_)"/><path d="m116.7 50.7c-4.7 0-8.6-3.8-8.6-8.6 0-4.7 3.8-8.6 8.6-8.6h66.5c4.7 0 8.6 3.8 8.6 8.6 0 4.7-3.8 8.6-8.6 8.6z" fill="url(#SVGID_18_)"/><g><circle cx="117.1" cy="42.1" fill="url(#SVGID_19_)" r="6.1"/><circle cx="117.1" cy="42.1" fill="url(#SVGID_20_)" r="3.8"/><circle cx="117.1" cy="42.1" fill="url(#SVGID_21_)" r=".6"/></g></g></g><path d="m296.6 140-.1 59.7h.1c1.8 0 3.3-1.5 3.3-3.3v-53.1c0-1.8-1.5-3.3-3.3-3.3z" fill="url(#SVGID_22_)"/><path d="m3.3 162.8v-32.9c-1.8 0-3.3 1.5-3.3 3.3v26.2c0 1.9 1.5 3.4 3.3 3.4zm0 36.9v-32.9c-1.8 0-3.3 1.5-3.3 3.3v26.2c0 1.9 1.5 3.4 3.3 3.4z" fill="url(#SVGID_23_)"/></g><g><path d="m276.7 212.5v162.1c-82.2-82.1-177-176.9-177.7-177.6-7.5-7.2-20.2-21.1-29.5-40.1-6.7-13.7-11.7-30.1-11.7-48.5 0-26.2 21.3-47.5 47.5-47.5 14 0 26.6 6.1 35.3 15.8l6.5 6.5c17.9 17.7 70.9 70.6 129.6 129.3z" fill="url(#SVGID_24_)"/><g><g><path d="m105.3 60.8c-26.2 0-47.5 21.3-47.5 47.5 0 52.8 41 88.9 46.8 93.7.4.3 1 .3 1.4 0 5.8-4.8 46.8-40.9 46.8-93.7 0-26.2-21.3-47.5-47.5-47.5z" fill="url(#SVGID_25_)"/><g><circle cx="105.3" cy="106.8" fill="url(#SVGID_26_)" r="28.7"/><circle cx="105.3" cy="106.8" fill="url(#SVGID_27_)" r="28.7"/><circle cx="105.3" cy="106.8" fill="url(#SVGID_28_)" r="28.7"/></g></g></g></g><g><path d="m251.4 273.4c-4.9-5.7-11.8-9.6-19.6-10.8-.7-1.3-45-45.6-46.3-46.3-1.3-2.4-3.8-4-6.6-4h-106c-17.9 0-32.5 14.6-32.5 32.5 0 9.7 4.3 18.5 11.1 24.4 1 1.1 44.2 44.3 44.6 44.8h-23.2c-17.9 0-32.5 14.6-32.5 32.5v2.8c0 9.7 4.3 18.5 11.1 24.4.7.7 72 72.1 118.4 118.5h78.4c15.7 0 28.3-12.7 28.3-28.3v-165.3c-11.5-11.6-24.6-24.7-25.2-25.2z" fill="url(#SVGID_29_)"/><path d="m108.4 381.7h-35.5c-17.9 0-32.5-14.6-32.5-32.5v-2.8c0-17.9 14.6-32.5 32.5-32.5h154.1c9.6 0 17.5-7.8 17.5-17.5v-1.8c0-9.6-7.8-17.5-17.5-17.5h-154.1c-17.9 0-32.5-14.6-32.5-32.5s14.6-32.5 32.5-32.5h105.9c4.1 0 7.5 3.4 7.5 7.5s-3.4 7.5-7.5 7.5h-105.9c-9.6 0-17.5 7.8-17.5 17.5 0 9.6 7.8 17.5 17.5 17.5h154.1c17.9 0 32.5 14.6 32.5 32.5v1.8c0 17.9-14.6 32.5-32.5 32.5h-154.1c-9.6 0-17.5 7.8-17.5 17.5v2.8c0 9.6 7.8 17.5 17.5 17.5h35.5c4.1 0 7.5 3.4 7.5 7.5s-3.4 7.5-7.5 7.5z" fill="url(#SVGID_30_)"/></g><g><g><path d="m408.9 512h-247c-2.5 0-4.5-2-4.5-4.5v-205.9c0-2.5 2-4.5 4.5-4.5h247c2.5 0 4.5 2 4.5 4.5v205.9c.1 2.5-2 4.5-4.5 4.5z" fill="url(#SVGID_31_)"/><g><path d="m413.5 488.6v18.8c0 2.5-2 4.5-4.5 4.5h-247c-2.5 0-4.5-2-4.5-4.5v-18.8z" fill="url(#SVGID_32_)"/><path d="m395.6 297h13.3c2.5 0 4.5 2 4.5 4.5v205.9c0 2.5-2 4.5-4.5 4.5h-13.3z" fill="url(#SVGID_33_)"/><path d="m413.5 320.4v-18.8c0-2.5-2-4.5-4.5-4.5h-247c-2.5 0-4.5 2-4.5 4.5v18.8z" fill="url(#SVGID_34_)"/><path d="m175.2 297h-13.3c-2.5 0-4.5 2-4.5 4.5v205.9c0 2.5 2 4.5 4.5 4.5h13.3z" fill="url(#SVGID_35_)"/></g></g><g><path d="m255.2 459.4h-62.5c-2.3 0-4.1-1.8-4.1-4.1s1.8-4.1 4.1-4.1h62.5c2.3 0 4.1 1.8 4.1 4.1 0 2.2-1.8 4.1-4.1 4.1zm-22.7 20.5c0-2.3-1.8-4.1-4.1-4.1h-35.7c-2.3 0-4.1 1.8-4.1 4.1s1.8 4.1 4.1 4.1h35.7c2.3.1 4.1-1.8 4.1-4.1z" fill="url(#SVGID_36_)"/><g><path d="m312.2 297v65.4l-8.5-6.4-9.1 6.6-9.2-6.6-9.1 6.6-9.2-6.6-8.4 6.4v-65.4z" fill="url(#SVGID_37_)"/><path d="m258.7 297h53.5v23.4h-53.5z" fill="url(#SVGID_38_)"/></g></g></g></g></svg>