<svg clip-rule="evenodd" fill-rule="evenodd" height="512" stroke-linejoin="round" stroke-miterlimit="2" viewBox="0 0 64 64" width="512" xmlns="http://www.w3.org/2000/svg"><g transform="translate(-576 -320)"><g id="Icon"><g transform="translate(256 2)"><path d="m380 368h-52v2c0 .53.211 1.039.586 1.414s.884.586 1.414.586h48c.53 0 1.039-.211 1.414-.586s.586-.884.586-1.414c0-1 0-2 0-2z" fill="#3f4e5e"/></g><g transform="translate(256 2)"><path d="m360 338c0-1.105-.895-2-2-2-6.302 0-25.698 0-32 0-1.105 0-2 .895-2 2v28c0 1.105.895 2 2 2h34z" fill="#feb62c"/></g><g transform="translate(256 6)"><g><path d="m380 348.828c0-.53-.211-1.039-.586-1.414-1.479-1.479-5.349-5.349-6.828-6.828-.375-.375-.884-.586-1.414-.586-2.715 0-11.172 0-11.172 0v24h20z" fill="#ff3d65"/></g><g><path d="m368 338c0-1.105-.895-2-2-2-2.37 0-6 0-6 0v4h8z" fill="#3f4e5e"/></g><g><path d="m376 350.663c0-.425-.169-.832-.469-1.132-1.12-1.12-3.942-3.942-5.062-5.062-.3-.3-.707-.469-1.132-.469-.894 0-2.515 0-3.737 0-.424 0-.831.169-1.131.469s-.469.707-.469 1.131v8.8c0 .424.169.831.469 1.131s.707.469 1.131.469h8.8c.424 0 .831-.169 1.131-.469s.469-.707.469-1.131c0-1.222 0-2.843 0-3.737z" fill="#f8f4f0"/></g><g><path d="m360 356h-36v6c0 1.105.895 2 2 2h34z" fill="#e6a327"/></g></g><g transform="matrix(1.5 0 0 1.5 84 -186)"><circle cx="340" cy="372" fill="#5b6f87" r="4"/></g><g transform="matrix(1.5 0 0 1.5 116 -186)"><circle cx="340" cy="372" fill="#5b6f87" r="4"/></g><g transform="translate(256 6)"><circle cx="338" cy="366" fill="#f8f4f0" r="2"/></g><g transform="translate(256 6)"><circle cx="370" cy="366" fill="#f8f4f0" r="2"/></g><g transform="translate(400 118)"><path d="m204 236.6c0-.331-.269-.6-.6-.6h-2.8c-.331 0-.6.269-.6.6v2.8c0 .331.269.6.6.6h2.8c.331 0 .6-.269.6-.6z" fill="#f8f4f0"/></g><g transform="translate(408 118)"><path d="m204 236.6c0-.331-.269-.6-.6-.6h-2.8c-.331 0-.6.269-.6.6v2.8c0 .331.269.6.6.6h2.8c.331 0 .6-.269.6-.6z" fill="#f8f4f0"/></g><g transform="translate(130 230)"><circle cx="468" cy="108" fill="#4bba6c" r="12"/></g><g transform="translate(132 102)"><path d="m459.293 236.707 4 4c.39.391 1.024.391 1.414 0l8-8c.39-.39.39-1.024 0-1.414s-1.024-.39-1.414 0l-7.293 7.293s-3.293-3.293-3.293-3.293c-.39-.39-1.024-.39-1.414 0s-.39 1.024 0 1.414z" fill="#f8f4f0"/></g></g></g></svg>