<svg height="512" viewBox="0 0 64 64" width="512" xmlns="http://www.w3.org/2000/svg"><g id="Icons"><g><g><path d="m42.841 16h-38.841v44h34v-26h6v-2h2.537c.692-1.195 1.985-2 3.463-2 .728 0 1.411.197 2 .539v-8.539c-4.091 0-7.612-2.473-9.159-6z" fill="#fab400"/></g><g><path d="m4 16h4v44h-4z" fill="#dc9600"/></g><g><path d="m24.006 16-.006 14 2-2 2 2 2-2 2 2-.006-14z" fill="#fa6450"/></g><g><path d="m8 50h10v2h-10z" fill="#be7800"/></g><g><path d="m8 54h10v2h-10z" fill="#be7800"/></g><g><path d="m40 36h20v24h-20z" fill="#f0f0f0"/></g><g><path d="m40 36h2v24h-2z" fill="#d2d2d2"/></g><g><path d="m52 34c0-1.105-.895-2-2-2-1.105 0-2 .895-2 2h-2v2h8v-2z" fill="#505050"/></g><g><path d="m48 40h8v2h-8z" fill="#d2d2d2"/></g><g><path d="m48 44h8v2h-8z" fill="#d2d2d2"/></g><g><path d="m48 48h8v2h-8z" fill="#d2d2d2"/></g><g><path d="m48 52h8v2h-8z" fill="#d2d2d2"/></g><g><path d="m44 40h2v2h-2z" fill="#fa6450" transform="matrix(-1 0 0 -1 90 82)"/></g><g><path d="m44 44h2v2h-2z" fill="#fa6450" transform="matrix(-1 0 0 -1 90 90)"/></g><g><path d="m44 48h2v2h-2z" fill="#fa6450" transform="matrix(-1 0 0 -1 90 98)"/></g><g><path d="m44 52h2v2h-2z" fill="#fa6450" transform="matrix(-1 0 0 -1 90 106)"/></g><g><circle cx="52" cy="12" fill="#fa6450" r="8"/></g><g><path d="m45.983 12c0-4.082 3.059-7.443 7.009-7.932-.326-.041-.656-.068-.992-.068-4.418 0-8 3.582-8 8s3.582 8 8 8c.336 0 .666-.027.991-.068-3.949-.489-7.008-3.85-7.008-7.932z" fill="#dc4632"/></g><g><path d="m55.536 14.121-2.122-2.121 2.122-2.121-1.415-1.415-2.121 2.122-2.121-2.122-1.415 1.415 2.122 2.121-2.122 2.121 1.415 1.415 2.121-2.122 2.121 2.122z" fill="#f0f0f0"/></g></g></g></svg>